<mxfile host="app.diagrams.net" modified="2023-12-03T23:11:17.181Z" agent="Mozilla/5.0 (X11; Linux x86_64; rv:120.0) Gecko/20100101 Firefox/120.0" etag="igJGS92N_IntEQUOFLsM" version="22.1.5" type="github">
  <diagram name="Page-1" id="281KWQ_vz6D9ApKIW97s">
    <mxGraphModel dx="1434" dy="791" grid="1" gridSize="10" guides="1" tooltips="1" connect="1" arrows="1" fold="1" page="1" pageScale="1" pageWidth="850" pageHeight="1100" background="#000000" math="0" shadow="1">
      <root>
        <mxCell id="0" />
        <mxCell id="1" parent="0" />
        <mxCell id="ljyijP0kOlmSLUWHq39t-101" value="&lt;div align=&quot;center&quot;&gt;&lt;br&gt;&lt;/div&gt;" style="rounded=1;whiteSpace=wrap;html=1;align=center;" parent="1" vertex="1">
          <mxGeometry x="860" y="30" width="1680" height="970" as="geometry" />
        </mxCell>
        <mxCell id="ljyijP0kOlmSLUWHq39t-100" value="" style="rounded=1;whiteSpace=wrap;html=1;" parent="1" vertex="1">
          <mxGeometry x="195" y="115" width="475" height="625" as="geometry" />
        </mxCell>
        <mxCell id="exDdUY9-8li77esu1dYq-1" value="Investigación del Caso" style="whiteSpace=wrap;strokeWidth=2;fillColor=#e6d0de;strokeColor=#996185;gradientColor=#d5739d;" parent="1" vertex="1">
          <mxGeometry x="348" y="200" width="173" height="35" as="geometry" />
        </mxCell>
        <mxCell id="exDdUY9-8li77esu1dYq-2" value="Determinar si es una Violación de Seguridad" style="whiteSpace=wrap;strokeWidth=2;fillColor=#f8cecc;strokeColor=#b85450;gradientColor=#ea6b66;" parent="1" vertex="1">
          <mxGeometry x="270" y="285" width="330" height="35" as="geometry" />
        </mxCell>
        <mxCell id="exDdUY9-8li77esu1dYq-3" value="Evaluar la Obligación de Notificación" style="whiteSpace=wrap;strokeWidth=2;fillColor=#d5e8d4;strokeColor=#82b366;gradientColor=#97d077;" parent="1" vertex="1">
          <mxGeometry x="295" y="370" width="279" height="35" as="geometry" />
        </mxCell>
        <mxCell id="exDdUY9-8li77esu1dYq-4" value="Consultar RGPD y Guía AEPD" style="whiteSpace=wrap;strokeWidth=2;fillColor=#dae8fc;strokeColor=#6c8ebf;gradientColor=#7ea6e0;" parent="1" vertex="1">
          <mxGeometry x="326" y="455" width="218" height="35" as="geometry" />
        </mxCell>
        <mxCell id="exDdUY9-8li77esu1dYq-5" value="Consultar Anexo III de la guía AEPD" style="whiteSpace=wrap;strokeWidth=2;fillColor=#ffcd28;strokeColor=#d79b00;gradientColor=#ffa500;" parent="1" vertex="1">
          <mxGeometry x="302" y="540" width="266" height="35" as="geometry" />
        </mxCell>
        <mxCell id="exDdUY9-8li77esu1dYq-6" value="Elaborar un Informe o Resumen" style="whiteSpace=wrap;strokeWidth=2;fillStyle=solid;fillColor=#f8cecc;gradientColor=#ea6b66;strokeColor=#b85450;" parent="1" vertex="1">
          <mxGeometry x="315" y="625" width="240" height="35" as="geometry" />
        </mxCell>
        <mxCell id="exDdUY9-8li77esu1dYq-7" value="" style="curved=1;startArrow=none;endArrow=block;exitX=0.5034682433729227;exitY=1;entryX=0.5003030487985322;entryY=0;rounded=0;" parent="1" source="exDdUY9-8li77esu1dYq-1" target="exDdUY9-8li77esu1dYq-2" edge="1">
          <mxGeometry relative="1" as="geometry">
            <Array as="points" />
          </mxGeometry>
        </mxCell>
        <mxCell id="exDdUY9-8li77esu1dYq-8" value="" style="curved=1;startArrow=none;endArrow=block;exitX=0.5003030487985322;exitY=1;entryX=0.5021505595108087;entryY=0;rounded=0;" parent="1" source="exDdUY9-8li77esu1dYq-2" target="exDdUY9-8li77esu1dYq-3" edge="1">
          <mxGeometry relative="1" as="geometry">
            <Array as="points" />
          </mxGeometry>
        </mxCell>
        <mxCell id="exDdUY9-8li77esu1dYq-9" value="" style="curved=1;startArrow=none;endArrow=block;exitX=0.5021505595108087;exitY=1;entryX=0.5004587435941084;entryY=0;rounded=0;" parent="1" source="exDdUY9-8li77esu1dYq-3" target="exDdUY9-8li77esu1dYq-4" edge="1">
          <mxGeometry relative="1" as="geometry">
            <Array as="points" />
          </mxGeometry>
        </mxCell>
        <mxCell id="exDdUY9-8li77esu1dYq-10" value="" style="curved=1;startArrow=none;endArrow=block;exitX=0.5004587435941084;exitY=1;entryX=0.5003759627951715;entryY=0;rounded=0;" parent="1" source="exDdUY9-8li77esu1dYq-4" target="exDdUY9-8li77esu1dYq-5" edge="1">
          <mxGeometry relative="1" as="geometry">
            <Array as="points" />
          </mxGeometry>
        </mxCell>
        <mxCell id="exDdUY9-8li77esu1dYq-11" value="" style="curved=1;startArrow=none;endArrow=block;exitX=0.5003759627951715;exitY=1;entryX=0.5004166920979818;entryY=0;rounded=0;" parent="1" source="exDdUY9-8li77esu1dYq-5" target="exDdUY9-8li77esu1dYq-6" edge="1">
          <mxGeometry relative="1" as="geometry">
            <Array as="points" />
          </mxGeometry>
        </mxCell>
        <mxCell id="ljyijP0kOlmSLUWHq39t-1" value="RGPD (Reglamento General de Protección de Datos)" style="whiteSpace=wrap;strokeWidth=3;fillColor=#6d8764;fontColor=#ffffff;strokeColor=#3A5431;shadow=1;labelBackgroundColor=none;" parent="1" vertex="1">
          <mxGeometry x="2002" y="60" width="233" height="35" as="geometry" />
        </mxCell>
        <mxCell id="ljyijP0kOlmSLUWHq39t-86" style="edgeStyle=orthogonalEdgeStyle;rounded=0;orthogonalLoop=1;jettySize=auto;html=1;fillColor=#a20025;strokeColor=#6F0000;shadow=1;strokeWidth=3;labelBackgroundColor=none;" parent="1" source="ljyijP0kOlmSLUWHq39t-3" target="ljyijP0kOlmSLUWHq39t-5" edge="1">
          <mxGeometry relative="1" as="geometry" />
        </mxCell>
        <mxCell id="ljyijP0kOlmSLUWHq39t-88" style="edgeStyle=orthogonalEdgeStyle;rounded=0;orthogonalLoop=1;jettySize=auto;html=1;entryX=0.5;entryY=0;entryDx=0;entryDy=0;fillColor=#a20025;strokeColor=#6F0000;shadow=1;strokeWidth=3;labelBackgroundColor=none;" parent="1" source="ljyijP0kOlmSLUWHq39t-3" target="ljyijP0kOlmSLUWHq39t-87" edge="1">
          <mxGeometry relative="1" as="geometry" />
        </mxCell>
        <mxCell id="ljyijP0kOlmSLUWHq39t-3" value="Proceso de Evaluación de Severidad" style="whiteSpace=wrap;strokeWidth=3;fillColor=#a20025;fontColor=#ffffff;strokeColor=#6F0000;shadow=1;labelBackgroundColor=none;" parent="1" vertex="1">
          <mxGeometry x="1976" y="420" width="271" height="35" as="geometry" />
        </mxCell>
        <mxCell id="ljyijP0kOlmSLUWHq39t-5" value="Pasos Detallados" style="whiteSpace=wrap;strokeWidth=3;fillColor=#e51400;fontColor=#ffffff;strokeColor=#B20000;shadow=1;labelBackgroundColor=none;" parent="1" vertex="1">
          <mxGeometry x="1799" y="515" width="133" height="35" as="geometry" />
        </mxCell>
        <mxCell id="ljyijP0kOlmSLUWHq39t-7" value="Obligaciones de Notificación" style="whiteSpace=wrap;strokeWidth=3;fillColor=#008a00;fontColor=#ffffff;strokeColor=#005700;shadow=1;labelBackgroundColor=none;" parent="1" vertex="1">
          <mxGeometry x="1221" y="590" width="219" height="35" as="geometry" />
        </mxCell>
        <mxCell id="ljyijP0kOlmSLUWHq39t-8" value="Formato de Notificación" style="whiteSpace=wrap;strokeWidth=3;fillColor=#008a00;fontColor=#ffffff;strokeColor=#005700;shadow=1;labelBackgroundColor=none;" parent="1" vertex="1">
          <mxGeometry x="1050" y="715" width="188" height="35" as="geometry" />
        </mxCell>
        <mxCell id="ljyijP0kOlmSLUWHq39t-10" value="Requisitos del RGPD" style="whiteSpace=wrap;strokeWidth=3;fillColor=#008a00;fontColor=#ffffff;strokeColor=#005700;shadow=1;labelBackgroundColor=none;" parent="1" vertex="1">
          <mxGeometry x="1288" y="715" width="158" height="35" as="geometry" />
        </mxCell>
        <mxCell id="ljyijP0kOlmSLUWHq39t-11" value="Información Necesaria" style="whiteSpace=wrap;strokeWidth=3;fillColor=#008a00;fontColor=#ffffff;strokeColor=#005700;shadow=1;labelBackgroundColor=none;" parent="1" vertex="1">
          <mxGeometry x="1056" y="800" width="175" height="35" as="geometry" />
        </mxCell>
        <mxCell id="ljyijP0kOlmSLUWHq39t-12" value="Datos del Incidente" style="whiteSpace=wrap;strokeWidth=3;fillColor=#e51400;fontColor=#ffffff;strokeColor=#B20000;shadow=1;labelBackgroundColor=none;" parent="1" vertex="1">
          <mxGeometry x="1586" y="680" width="154" height="35" as="geometry" />
        </mxCell>
        <mxCell id="ljyijP0kOlmSLUWHq39t-97" style="edgeStyle=orthogonalEdgeStyle;rounded=0;orthogonalLoop=1;jettySize=auto;html=1;entryX=0.5;entryY=0;entryDx=0;entryDy=0;fillColor=#e51400;strokeColor=#B20000;shadow=1;strokeWidth=3;labelBackgroundColor=none;" parent="1" source="ljyijP0kOlmSLUWHq39t-13" target="ljyijP0kOlmSLUWHq39t-14" edge="1">
          <mxGeometry relative="1" as="geometry" />
        </mxCell>
        <mxCell id="ljyijP0kOlmSLUWHq39t-13" value="Impacto en los Afectados" style="whiteSpace=wrap;strokeWidth=3;fillColor=#e51400;fontColor=#ffffff;strokeColor=#B20000;shadow=1;labelBackgroundColor=none;" parent="1" vertex="1">
          <mxGeometry x="1992" y="680" width="195" height="35" as="geometry" />
        </mxCell>
        <mxCell id="ljyijP0kOlmSLUWHq39t-14" value="Medidas Correctivas" style="whiteSpace=wrap;strokeWidth=3;fillColor=#e51400;fontColor=#ffffff;strokeColor=#B20000;shadow=1;labelBackgroundColor=none;" parent="1" vertex="1">
          <mxGeometry x="1977.5" y="820" width="224" height="35" as="geometry" />
        </mxCell>
        <mxCell id="ljyijP0kOlmSLUWHq39t-15" value="Caso Específico" style="whiteSpace=wrap;strokeWidth=3;fillColor=#008a00;fontColor=#ffffff;strokeColor=#005700;shadow=1;labelBackgroundColor=none;" parent="1" vertex="1">
          <mxGeometry x="1096" y="950" width="164" height="35" as="geometry" />
        </mxCell>
        <mxCell id="ljyijP0kOlmSLUWHq39t-16" value="Recursos Adicionales" style="whiteSpace=wrap;strokeWidth=3;fillColor=#6d8764;fontColor=#ffffff;strokeColor=#3A5431;shadow=1;labelBackgroundColor=none;" parent="1" vertex="1">
          <mxGeometry x="2008" y="220" width="234" height="50" as="geometry" />
        </mxCell>
        <mxCell id="ljyijP0kOlmSLUWHq39t-17" value="Guía de la AEPD - Brechas de Seguridad - https://www.aepd.es/media/guias/guia-brechas-seguridad.pdf-" style="whiteSpace=wrap;strokeWidth=3;fillColor=#6d8764;fontColor=#ffffff;strokeColor=#3A5431;shadow=1;labelBackgroundColor=none;" parent="1" vertex="1">
          <mxGeometry x="2006" y="125" width="320" height="60" as="geometry" />
        </mxCell>
        <mxCell id="ljyijP0kOlmSLUWHq39t-22" value="1. Identificar el incidente" style="curved=1;startArrow=none;endArrow=block;exitX=0.37280697930128054;exitY=1;entryX=0.8044371831984748;entryY=0;rounded=0;fillColor=#e51400;strokeColor=#B20000;shadow=1;strokeWidth=3;labelBackgroundColor=none;" parent="1" source="ljyijP0kOlmSLUWHq39t-5" target="ljyijP0kOlmSLUWHq39t-12" edge="1">
          <mxGeometry x="1" y="-142" relative="1" as="geometry">
            <Array as="points">
              <mxPoint x="1815" y="585" />
            </Array>
            <mxPoint x="-29" y="35" as="offset" />
          </mxGeometry>
        </mxCell>
        <mxCell id="ljyijP0kOlmSLUWHq39t-23" value="2. Evaluar la naturaleza de los datos afectados" style="curved=1;startArrow=none;endArrow=block;exitX=-0.002255662043291823;exitY=0.8022868356074745;entryX=0.19794368331050446;entryY=0;rounded=0;fillColor=#e51400;strokeColor=#B20000;shadow=1;strokeWidth=3;labelBackgroundColor=none;" parent="1" source="ljyijP0kOlmSLUWHq39t-5" target="ljyijP0kOlmSLUWHq39t-12" edge="1">
          <mxGeometry x="-0.8307" y="63" relative="1" as="geometry">
            <Array as="points">
              <mxPoint x="1535" y="585" />
            </Array>
            <mxPoint as="offset" />
          </mxGeometry>
        </mxCell>
        <mxCell id="ljyijP0kOlmSLUWHq39t-24" value="3. Determinar las posibles consecuencias" style="curved=1;startArrow=none;endArrow=block;exitX=0.9982455834410244;exitY=0.7032828025588759;entryX=0.7534045618823448;entryY=0;rounded=0;fillColor=#a20025;strokeColor=#6F0000;shadow=1;strokeWidth=3;labelBackgroundColor=none;" parent="1" source="ljyijP0kOlmSLUWHq39t-5" target="ljyijP0kOlmSLUWHq39t-13" edge="1">
          <mxGeometry x="-0.7556" y="-62" relative="1" as="geometry">
            <Array as="points">
              <mxPoint x="2356" y="585" />
            </Array>
            <mxPoint as="offset" />
          </mxGeometry>
        </mxCell>
        <mxCell id="ljyijP0kOlmSLUWHq39t-25" value="4. Asignar una gravedad al incidente" style="curved=1;startArrow=none;endArrow=block;exitX=0.9821010580038961;exitY=1;entryX=0.24437321067875287;entryY=0;rounded=0;fillColor=#e51400;strokeColor=#B20000;shadow=1;strokeWidth=3;labelBackgroundColor=none;" parent="1" source="ljyijP0kOlmSLUWHq39t-5" target="ljyijP0kOlmSLUWHq39t-13" edge="1">
          <mxGeometry x="0.158" y="150" relative="1" as="geometry">
            <Array as="points">
              <mxPoint x="2058" y="585" />
            </Array>
            <mxPoint x="1" y="-4" as="offset" />
          </mxGeometry>
        </mxCell>
        <mxCell id="ljyijP0kOlmSLUWHq39t-30" value="Requisitos del RGPD" style="curved=1;startArrow=none;endArrow=block;exitX=0.5019025759065532;exitY=1;entryX=0.4994725577438934;entryY=0;rounded=0;fillColor=#008a00;strokeColor=#005700;shadow=1;strokeWidth=3;labelBackgroundColor=none;" parent="1" source="ljyijP0kOlmSLUWHq39t-7" target="ljyijP0kOlmSLUWHq39t-10" edge="1">
          <mxGeometry relative="1" as="geometry">
            <Array as="points" />
          </mxGeometry>
        </mxCell>
        <mxCell id="ljyijP0kOlmSLUWHq39t-31" value="Momento adecuado" style="curved=1;startArrow=none;endArrow=block;exitX=0.16218923397441648;exitY=1;entryX=0.49853722592617605;entryY=0;rounded=0;fillColor=#008a00;strokeColor=#005700;shadow=1;strokeWidth=3;labelBackgroundColor=none;" parent="1" source="ljyijP0kOlmSLUWHq39t-7" target="ljyijP0kOlmSLUWHq39t-8" edge="1">
          <mxGeometry relative="1" as="geometry">
            <Array as="points">
              <mxPoint x="1144" y="680" />
            </Array>
          </mxGeometry>
        </mxCell>
        <mxCell id="ljyijP0kOlmSLUWHq39t-32" value="" style="curved=1;startArrow=none;endArrow=block;exitX=0.49853722592617605;exitY=1;entryX=0.5012857055664063;entryY=0;rounded=0;fillColor=#008a00;strokeColor=#005700;shadow=1;strokeWidth=3;labelBackgroundColor=none;" parent="1" source="ljyijP0kOlmSLUWHq39t-8" target="ljyijP0kOlmSLUWHq39t-11" edge="1">
          <mxGeometry relative="1" as="geometry">
            <Array as="points" />
          </mxGeometry>
        </mxCell>
        <mxCell id="ljyijP0kOlmSLUWHq39t-33" value="Datos del Incidente" style="curved=1;startArrow=none;endArrow=block;exitX=1.0009999738420758;exitY=0.9571021753108871;entryX=0.6819360004207957;entryY=0;rounded=0;fillColor=#008a00;strokeColor=#005700;shadow=1;strokeWidth=3;labelBackgroundColor=none;" parent="1" source="ljyijP0kOlmSLUWHq39t-11" target="ljyijP0kOlmSLUWHq39t-15" edge="1">
          <mxGeometry x="0.3755" y="-4" relative="1" as="geometry">
            <Array as="points">
              <mxPoint x="1431" y="870" />
            </Array>
            <mxPoint as="offset" />
          </mxGeometry>
        </mxCell>
        <mxCell id="ljyijP0kOlmSLUWHq39t-34" value="Impacto en los Afectados" style="curved=1;startArrow=none;endArrow=block;exitX=0.7058492024739579;exitY=1;entryX=0.3169461537182811;entryY=0;rounded=0;fillColor=#008a00;strokeColor=#005700;shadow=1;strokeWidth=3;labelBackgroundColor=none;" parent="1" source="ljyijP0kOlmSLUWHq39t-11" target="ljyijP0kOlmSLUWHq39t-15" edge="1">
          <mxGeometry x="0.2884" y="-18" relative="1" as="geometry">
            <Array as="points">
              <mxPoint x="1251" y="870" />
            </Array>
            <mxPoint as="offset" />
          </mxGeometry>
        </mxCell>
        <mxCell id="ljyijP0kOlmSLUWHq39t-35" value="Medidas Correctivas Tomadas" style="curved=1;startArrow=none;endArrow=block;exitX=0.2967222086588546;exitY=1;entryX=0.000609770053770484;entryY=0.0971080363194525;rounded=0;fillColor=#008a00;strokeColor=#005700;shadow=1;strokeWidth=3;labelBackgroundColor=none;" parent="1" source="ljyijP0kOlmSLUWHq39t-11" target="ljyijP0kOlmSLUWHq39t-15" edge="1">
          <mxGeometry relative="1" as="geometry">
            <Array as="points">
              <mxPoint x="1036" y="870" />
            </Array>
          </mxGeometry>
        </mxCell>
        <mxCell id="ljyijP0kOlmSLUWHq39t-49" style="edgeStyle=entityRelationEdgeStyle;rounded=0;orthogonalLoop=1;jettySize=auto;html=1;startArrow=none;endArrow=none;segment=10;curved=1;sourcePerimeterSpacing=0;targetPerimeterSpacing=0;fillColor=#008a00;strokeColor=#005700;shadow=1;strokeWidth=3;labelBackgroundColor=none;" parent="1" source="ljyijP0kOlmSLUWHq39t-40" target="ljyijP0kOlmSLUWHq39t-44" edge="1">
          <mxGeometry relative="1" as="geometry" />
        </mxCell>
        <mxCell id="ljyijP0kOlmSLUWHq39t-50" style="edgeStyle=entityRelationEdgeStyle;rounded=0;orthogonalLoop=1;jettySize=auto;html=1;startArrow=none;endArrow=none;segment=10;curved=1;sourcePerimeterSpacing=0;targetPerimeterSpacing=0;entryX=1;entryY=0.5;entryDx=0;entryDy=0;fillColor=#008a00;strokeColor=#005700;shadow=1;strokeWidth=3;labelBackgroundColor=none;" parent="1" source="ljyijP0kOlmSLUWHq39t-40" target="ljyijP0kOlmSLUWHq39t-46" edge="1">
          <mxGeometry relative="1" as="geometry" />
        </mxCell>
        <mxCell id="ljyijP0kOlmSLUWHq39t-52" style="edgeStyle=entityRelationEdgeStyle;rounded=0;orthogonalLoop=1;jettySize=auto;html=1;startArrow=none;endArrow=none;segment=10;curved=1;sourcePerimeterSpacing=0;targetPerimeterSpacing=0;fillColor=#008a00;strokeColor=#005700;shadow=1;strokeWidth=3;labelBackgroundColor=none;" parent="1" source="ljyijP0kOlmSLUWHq39t-40" target="ljyijP0kOlmSLUWHq39t-47" edge="1">
          <mxGeometry relative="1" as="geometry" />
        </mxCell>
        <mxCell id="ljyijP0kOlmSLUWHq39t-67" style="edgeStyle=entityRelationEdgeStyle;rounded=0;orthogonalLoop=1;jettySize=auto;html=1;startArrow=none;endArrow=none;segment=10;curved=1;sourcePerimeterSpacing=0;targetPerimeterSpacing=0;fillColor=#008a00;strokeColor=#005700;shadow=1;strokeWidth=3;labelBackgroundColor=none;" parent="1" source="ljyijP0kOlmSLUWHq39t-40" target="ljyijP0kOlmSLUWHq39t-65" edge="1">
          <mxGeometry relative="1" as="geometry" />
        </mxCell>
        <mxCell id="ljyijP0kOlmSLUWHq39t-40" value="Términos y conceptos" style="ellipse;whiteSpace=wrap;html=1;align=center;newEdgeStyle={&quot;edgeStyle&quot;:&quot;entityRelationEdgeStyle&quot;,&quot;startArrow&quot;:&quot;none&quot;,&quot;endArrow&quot;:&quot;none&quot;,&quot;segment&quot;:10,&quot;curved&quot;:1,&quot;sourcePerimeterSpacing&quot;:0,&quot;targetPerimeterSpacing&quot;:0};treeFolding=1;treeMoving=1;fillColor=#008a00;fontColor=#ffffff;strokeColor=#005700;shadow=1;strokeWidth=3;labelBackgroundColor=none;" parent="1" vertex="1">
          <mxGeometry x="1593" y="410" width="147" height="55" as="geometry" />
        </mxCell>
        <mxCell id="ljyijP0kOlmSLUWHq39t-60" style="edgeStyle=entityRelationEdgeStyle;rounded=0;orthogonalLoop=1;jettySize=auto;html=1;startArrow=none;endArrow=none;segment=10;curved=1;sourcePerimeterSpacing=0;targetPerimeterSpacing=0;fillColor=#008a00;strokeColor=#005700;shadow=1;strokeWidth=3;labelBackgroundColor=none;" parent="1" source="ljyijP0kOlmSLUWHq39t-41" target="ljyijP0kOlmSLUWHq39t-58" edge="1">
          <mxGeometry relative="1" as="geometry" />
        </mxCell>
        <mxCell id="ljyijP0kOlmSLUWHq39t-41" value="&lt;b&gt;Consentimiento informado&lt;/b&gt;" style="whiteSpace=wrap;html=1;rounded=1;arcSize=50;align=center;verticalAlign=middle;strokeWidth=3;autosize=1;spacing=4;treeFolding=1;treeMoving=1;newEdgeStyle={&quot;edgeStyle&quot;:&quot;entityRelationEdgeStyle&quot;,&quot;startArrow&quot;:&quot;none&quot;,&quot;endArrow&quot;:&quot;none&quot;,&quot;segment&quot;:10,&quot;curved&quot;:1,&quot;sourcePerimeterSpacing&quot;:0,&quot;targetPerimeterSpacing&quot;:0};fillColor=#008a00;fontColor=#ffffff;strokeColor=#005700;shadow=1;labelBackgroundColor=none;" parent="1" vertex="1">
          <mxGeometry x="1386" y="295" width="200" height="30" as="geometry" />
        </mxCell>
        <mxCell id="ljyijP0kOlmSLUWHq39t-42" value="" style="edgeStyle=entityRelationEdgeStyle;startArrow=none;endArrow=none;segment=10;curved=1;sourcePerimeterSpacing=0;targetPerimeterSpacing=0;rounded=0;exitX=0;exitY=0.5;exitDx=0;exitDy=0;entryX=0.558;entryY=1.011;entryDx=0;entryDy=0;entryPerimeter=0;fillColor=#008a00;strokeColor=#005700;shadow=1;strokeWidth=3;labelBackgroundColor=none;" parent="1" source="ljyijP0kOlmSLUWHq39t-40" target="ljyijP0kOlmSLUWHq39t-41" edge="1">
          <mxGeometry relative="1" as="geometry">
            <mxPoint x="1536" y="460" as="sourcePoint" />
            <mxPoint x="1366" y="400" as="targetPoint" />
            <Array as="points">
              <mxPoint x="1526" y="320" />
              <mxPoint x="1606" y="380" />
              <mxPoint x="1506" y="470" />
              <mxPoint x="1486" y="490" />
              <mxPoint x="1516" y="400" />
              <mxPoint x="1516" y="400" />
            </Array>
          </mxGeometry>
        </mxCell>
        <mxCell id="ljyijP0kOlmSLUWHq39t-64" style="edgeStyle=entityRelationEdgeStyle;rounded=0;orthogonalLoop=1;jettySize=auto;html=1;startArrow=none;endArrow=none;segment=10;curved=1;sourcePerimeterSpacing=0;targetPerimeterSpacing=0;entryX=1;entryY=0.5;entryDx=0;entryDy=0;fillColor=#008a00;strokeColor=#005700;shadow=1;strokeWidth=3;labelBackgroundColor=none;" parent="1" source="ljyijP0kOlmSLUWHq39t-44" target="ljyijP0kOlmSLUWHq39t-63" edge="1">
          <mxGeometry relative="1" as="geometry" />
        </mxCell>
        <mxCell id="ljyijP0kOlmSLUWHq39t-44" value="&lt;strong&gt;Responsabilidad del Controlador y Procesador&lt;/strong&gt;" style="whiteSpace=wrap;html=1;rounded=1;arcSize=50;align=center;verticalAlign=middle;strokeWidth=3;autosize=1;spacing=4;treeFolding=1;treeMoving=1;newEdgeStyle={&quot;edgeStyle&quot;:&quot;entityRelationEdgeStyle&quot;,&quot;startArrow&quot;:&quot;none&quot;,&quot;endArrow&quot;:&quot;none&quot;,&quot;segment&quot;:10,&quot;curved&quot;:1,&quot;sourcePerimeterSpacing&quot;:0,&quot;targetPerimeterSpacing&quot;:0};fillColor=#008a00;fontColor=#ffffff;strokeColor=#005700;shadow=1;labelBackgroundColor=none;" parent="1" vertex="1">
          <mxGeometry x="1221" y="395" width="310" height="30" as="geometry" />
        </mxCell>
        <mxCell id="ljyijP0kOlmSLUWHq39t-70" style="edgeStyle=entityRelationEdgeStyle;rounded=0;orthogonalLoop=1;jettySize=auto;html=1;startArrow=none;endArrow=none;segment=10;curved=1;sourcePerimeterSpacing=0;targetPerimeterSpacing=0;fillColor=#008a00;strokeColor=#005700;shadow=1;strokeWidth=3;labelBackgroundColor=none;" parent="1" source="ljyijP0kOlmSLUWHq39t-46" target="ljyijP0kOlmSLUWHq39t-68" edge="1">
          <mxGeometry relative="1" as="geometry" />
        </mxCell>
        <mxCell id="ljyijP0kOlmSLUWHq39t-46" value="&lt;strong&gt;Evaluación de Impacto en la Protección de Datos (EIPD)&lt;/strong&gt;" style="whiteSpace=wrap;html=1;rounded=1;arcSize=50;align=center;verticalAlign=middle;strokeWidth=3;autosize=1;spacing=4;treeFolding=1;treeMoving=1;newEdgeStyle={&quot;edgeStyle&quot;:&quot;entityRelationEdgeStyle&quot;,&quot;startArrow&quot;:&quot;none&quot;,&quot;endArrow&quot;:&quot;none&quot;,&quot;segment&quot;:10,&quot;curved&quot;:1,&quot;sourcePerimeterSpacing&quot;:0,&quot;targetPerimeterSpacing&quot;:0};fillColor=#008a00;fontColor=#ffffff;strokeColor=#005700;shadow=1;labelBackgroundColor=none;" parent="1" vertex="1">
          <mxGeometry x="1196" y="445" width="360" height="30" as="geometry" />
        </mxCell>
        <mxCell id="ljyijP0kOlmSLUWHq39t-55" style="edgeStyle=entityRelationEdgeStyle;rounded=0;orthogonalLoop=1;jettySize=auto;html=1;startArrow=none;endArrow=none;segment=10;curved=1;sourcePerimeterSpacing=0;targetPerimeterSpacing=0;fillColor=#008a00;strokeColor=#005700;shadow=1;strokeWidth=3;labelBackgroundColor=none;" parent="1" source="ljyijP0kOlmSLUWHq39t-47" target="ljyijP0kOlmSLUWHq39t-7" edge="1">
          <mxGeometry relative="1" as="geometry" />
        </mxCell>
        <mxCell id="ljyijP0kOlmSLUWHq39t-71" style="edgeStyle=entityRelationEdgeStyle;rounded=0;orthogonalLoop=1;jettySize=auto;html=1;startArrow=none;endArrow=none;segment=10;curved=1;sourcePerimeterSpacing=0;targetPerimeterSpacing=0;entryX=1;entryY=0.5;entryDx=0;entryDy=0;fillColor=#008a00;strokeColor=#005700;shadow=1;strokeWidth=3;labelBackgroundColor=none;" parent="1" source="ljyijP0kOlmSLUWHq39t-47" target="ljyijP0kOlmSLUWHq39t-69" edge="1">
          <mxGeometry relative="1" as="geometry" />
        </mxCell>
        <mxCell id="ljyijP0kOlmSLUWHq39t-47" value="&lt;strong&gt;Notificación de Violaciones de Seguridad&lt;/strong&gt;" style="whiteSpace=wrap;html=1;rounded=1;arcSize=50;align=center;verticalAlign=middle;strokeWidth=3;autosize=1;spacing=4;treeFolding=1;treeMoving=1;newEdgeStyle={&quot;edgeStyle&quot;:&quot;entityRelationEdgeStyle&quot;,&quot;startArrow&quot;:&quot;none&quot;,&quot;endArrow&quot;:&quot;none&quot;,&quot;segment&quot;:10,&quot;curved&quot;:1,&quot;sourcePerimeterSpacing&quot;:0,&quot;targetPerimeterSpacing&quot;:0};fillColor=#008a00;fontColor=#ffffff;strokeColor=#005700;shadow=1;labelBackgroundColor=none;" parent="1" vertex="1">
          <mxGeometry x="1246" y="500" width="280" height="30" as="geometry" />
        </mxCell>
        <mxCell id="ljyijP0kOlmSLUWHq39t-58" value="&lt;font style=&quot;font-size: 10px;&quot;&gt;Las organizaciones deben obtener el consentimiento claro y específico de los individuos para procesar sus datos personales.&lt;/font&gt;" style="rounded=1;whiteSpace=wrap;html=1;fillColor=#008a00;fontColor=#ffffff;strokeColor=#005700;shadow=1;strokeWidth=3;labelBackgroundColor=none;" parent="1" vertex="1">
          <mxGeometry x="1146" y="125" width="170" height="100" as="geometry" />
        </mxCell>
        <mxCell id="ljyijP0kOlmSLUWHq39t-61" value="&lt;font style=&quot;font-size: 10px;&quot;&gt;Los individuos tienen derechos, incluyendo el derecho de acceso, rectificación, supresión y portabilidad de sus datos.&lt;/font&gt;" style="rounded=1;whiteSpace=wrap;html=1;fillColor=#008a00;fontColor=#ffffff;strokeColor=#005700;shadow=1;strokeWidth=3;labelBackgroundColor=none;" parent="1" vertex="1">
          <mxGeometry x="956" y="150" width="170" height="100" as="geometry" />
        </mxCell>
        <mxCell id="ljyijP0kOlmSLUWHq39t-63" value="&lt;font style=&quot;font-size: 10px;&quot;&gt;Las organizaciones son responsables de cumplir con el RGPD, y tanto los &lt;br&gt;controladores como los procesadores de datos comparten responsabilidades&lt;br&gt; específicas.&lt;/font&gt;" style="rounded=1;whiteSpace=wrap;html=1;fillColor=#008a00;fontColor=#ffffff;strokeColor=#005700;shadow=1;strokeWidth=3;labelBackgroundColor=none;" parent="1" vertex="1">
          <mxGeometry x="886" y="260" width="200" height="85" as="geometry" />
        </mxCell>
        <mxCell id="ljyijP0kOlmSLUWHq39t-65" value="&lt;b&gt;Consentimiento informado&lt;/b&gt;" style="whiteSpace=wrap;html=1;rounded=1;arcSize=50;align=center;verticalAlign=middle;strokeWidth=3;autosize=1;spacing=4;treeFolding=1;treeMoving=1;newEdgeStyle={&quot;edgeStyle&quot;:&quot;entityRelationEdgeStyle&quot;,&quot;startArrow&quot;:&quot;none&quot;,&quot;endArrow&quot;:&quot;none&quot;,&quot;segment&quot;:10,&quot;curved&quot;:1,&quot;sourcePerimeterSpacing&quot;:0,&quot;targetPerimeterSpacing&quot;:0};fillColor=#008a00;fontColor=#ffffff;strokeColor=#005700;shadow=1;labelBackgroundColor=none;" parent="1" vertex="1">
          <mxGeometry x="1221" y="340" width="200" height="30" as="geometry" />
        </mxCell>
        <mxCell id="ljyijP0kOlmSLUWHq39t-66" style="edgeStyle=entityRelationEdgeStyle;rounded=0;orthogonalLoop=1;jettySize=auto;html=1;startArrow=none;endArrow=none;segment=10;curved=1;sourcePerimeterSpacing=0;targetPerimeterSpacing=0;entryX=1.024;entryY=0.53;entryDx=0;entryDy=0;entryPerimeter=0;fillColor=#008a00;strokeColor=#005700;shadow=1;strokeWidth=3;labelBackgroundColor=none;" parent="1" source="ljyijP0kOlmSLUWHq39t-65" target="ljyijP0kOlmSLUWHq39t-61" edge="1">
          <mxGeometry relative="1" as="geometry" />
        </mxCell>
        <mxCell id="ljyijP0kOlmSLUWHq39t-68" value="&lt;font style=&quot;font-size: 10px;&quot;&gt;En ciertos casos, es necesario realizar una EIPD para evaluar y gestionar los riesgos del tratamiento de datos personales.&lt;/font&gt;" style="rounded=1;whiteSpace=wrap;html=1;fillColor=#008a00;fontColor=#ffffff;strokeColor=#005700;shadow=1;strokeWidth=3;labelBackgroundColor=none;" parent="1" vertex="1">
          <mxGeometry x="886" y="360" width="200" height="85" as="geometry" />
        </mxCell>
        <mxCell id="ljyijP0kOlmSLUWHq39t-69" value="&lt;font style=&quot;font-size: 10px;&quot;&gt;Las organizaciones deben notificar a la autoridad de control y, en &lt;br&gt;algunos casos, a los individuos, sobre violaciones de seguridad que &lt;br&gt;puedan afectar sus datos personales.&lt;/font&gt;" style="rounded=1;whiteSpace=wrap;html=1;fillColor=#008a00;fontColor=#ffffff;strokeColor=#005700;shadow=1;strokeWidth=3;labelBackgroundColor=none;" parent="1" vertex="1">
          <mxGeometry x="886" y="465" width="200" height="85" as="geometry" />
        </mxCell>
        <mxCell id="ljyijP0kOlmSLUWHq39t-76" style="edgeStyle=entityRelationEdgeStyle;rounded=0;orthogonalLoop=1;jettySize=auto;html=1;startArrow=none;endArrow=none;segment=10;curved=1;sourcePerimeterSpacing=0;targetPerimeterSpacing=0;fillColor=#6d8764;strokeColor=#3A5431;shadow=1;strokeWidth=3;labelBackgroundColor=none;" parent="1" source="ljyijP0kOlmSLUWHq39t-74" target="ljyijP0kOlmSLUWHq39t-1" edge="1">
          <mxGeometry relative="1" as="geometry" />
        </mxCell>
        <mxCell id="ljyijP0kOlmSLUWHq39t-80" style="edgeStyle=entityRelationEdgeStyle;rounded=0;orthogonalLoop=1;jettySize=auto;html=1;startArrow=none;endArrow=none;segment=10;curved=1;sourcePerimeterSpacing=0;targetPerimeterSpacing=0;fillColor=#6d8764;strokeColor=#3A5431;shadow=1;strokeWidth=3;labelBackgroundColor=none;" parent="1" source="ljyijP0kOlmSLUWHq39t-74" target="ljyijP0kOlmSLUWHq39t-17" edge="1">
          <mxGeometry relative="1" as="geometry" />
        </mxCell>
        <mxCell id="ljyijP0kOlmSLUWHq39t-74" value="&lt;b&gt;Referencias&lt;/b&gt;" style="whiteSpace=wrap;html=1;rounded=1;arcSize=50;align=center;verticalAlign=middle;strokeWidth=3;autosize=1;spacing=4;treeFolding=1;treeMoving=1;newEdgeStyle={&quot;edgeStyle&quot;:&quot;entityRelationEdgeStyle&quot;,&quot;startArrow&quot;:&quot;none&quot;,&quot;endArrow&quot;:&quot;none&quot;,&quot;segment&quot;:10,&quot;curved&quot;:1,&quot;sourcePerimeterSpacing&quot;:0,&quot;targetPerimeterSpacing&quot;:0};fillColor=#6d8764;fontColor=#ffffff;strokeColor=#3A5431;shadow=1;labelBackgroundColor=none;" parent="1" vertex="1">
          <mxGeometry x="1796" y="115" width="110" height="30" as="geometry" />
        </mxCell>
        <mxCell id="ljyijP0kOlmSLUWHq39t-78" style="edgeStyle=entityRelationEdgeStyle;rounded=0;orthogonalLoop=1;jettySize=auto;html=1;startArrow=none;endArrow=none;segment=10;curved=1;sourcePerimeterSpacing=0;targetPerimeterSpacing=0;entryX=0.5;entryY=0;entryDx=0;entryDy=0;fillColor=#008a00;strokeColor=#005700;shadow=1;strokeWidth=3;labelBackgroundColor=none;" parent="1" source="ljyijP0kOlmSLUWHq39t-77" target="ljyijP0kOlmSLUWHq39t-40" edge="1">
          <mxGeometry relative="1" as="geometry" />
        </mxCell>
        <mxCell id="ljyijP0kOlmSLUWHq39t-79" style="edgeStyle=entityRelationEdgeStyle;rounded=0;orthogonalLoop=1;jettySize=auto;html=1;startArrow=none;endArrow=none;segment=10;curved=1;sourcePerimeterSpacing=0;targetPerimeterSpacing=0;fillColor=#008a00;strokeColor=#005700;shadow=1;strokeWidth=3;labelBackgroundColor=none;" parent="1" source="ljyijP0kOlmSLUWHq39t-77" target="ljyijP0kOlmSLUWHq39t-74" edge="1">
          <mxGeometry relative="1" as="geometry" />
        </mxCell>
        <mxCell id="ljyijP0kOlmSLUWHq39t-82" style="edgeStyle=entityRelationEdgeStyle;rounded=0;orthogonalLoop=1;jettySize=auto;html=1;startArrow=none;endArrow=none;segment=10;curved=1;sourcePerimeterSpacing=0;targetPerimeterSpacing=0;entryX=0;entryY=0.75;entryDx=0;entryDy=0;fillColor=#008a00;strokeColor=#005700;shadow=1;strokeWidth=3;labelBackgroundColor=none;" parent="1" source="ljyijP0kOlmSLUWHq39t-77" target="ljyijP0kOlmSLUWHq39t-81" edge="1">
          <mxGeometry relative="1" as="geometry" />
        </mxCell>
        <mxCell id="ljyijP0kOlmSLUWHq39t-77" value="Privacidad y seguridad de datos" style="ellipse;whiteSpace=wrap;html=1;align=center;newEdgeStyle={&quot;edgeStyle&quot;:&quot;entityRelationEdgeStyle&quot;,&quot;startArrow&quot;:&quot;none&quot;,&quot;endArrow&quot;:&quot;none&quot;,&quot;segment&quot;:10,&quot;curved&quot;:1,&quot;sourcePerimeterSpacing&quot;:0,&quot;targetPerimeterSpacing&quot;:0};treeFolding=1;treeMoving=1;fillColor=#1ba1e2;fontColor=#ffffff;strokeColor=#006EAF;shadow=1;strokeWidth=3;fontStyle=5;fontSize=17;labelBackgroundColor=none;" parent="1" vertex="1">
          <mxGeometry x="1421" y="172.5" width="226.5" height="70" as="geometry" />
        </mxCell>
        <mxCell id="ljyijP0kOlmSLUWHq39t-81" value="Criterios para Determinar una Violación de Seguridad" style="whiteSpace=wrap;html=1;rounded=1;arcSize=50;align=center;verticalAlign=middle;strokeWidth=3;autosize=1;spacing=4;treeFolding=1;treeMoving=1;newEdgeStyle={&quot;edgeStyle&quot;:&quot;entityRelationEdgeStyle&quot;,&quot;startArrow&quot;:&quot;none&quot;,&quot;endArrow&quot;:&quot;none&quot;,&quot;segment&quot;:10,&quot;curved&quot;:1,&quot;sourcePerimeterSpacing&quot;:0,&quot;targetPerimeterSpacing&quot;:0};fillColor=#a20025;fontColor=#ffffff;strokeColor=#6F0000;shadow=1;labelBackgroundColor=none;" parent="1" vertex="1">
          <mxGeometry x="1825" y="325" width="330" height="30" as="geometry" />
        </mxCell>
        <mxCell id="ljyijP0kOlmSLUWHq39t-85" style="edgeStyle=entityRelationEdgeStyle;rounded=0;orthogonalLoop=1;jettySize=auto;html=1;startArrow=none;endArrow=none;segment=10;curved=1;sourcePerimeterSpacing=0;targetPerimeterSpacing=0;entryX=0.458;entryY=-0.048;entryDx=0;entryDy=0;entryPerimeter=0;fillColor=#a20025;strokeColor=#6F0000;shadow=1;strokeWidth=3;labelBackgroundColor=none;" parent="1" source="ljyijP0kOlmSLUWHq39t-81" target="ljyijP0kOlmSLUWHq39t-3" edge="1">
          <mxGeometry relative="1" as="geometry" />
        </mxCell>
        <mxCell id="ljyijP0kOlmSLUWHq39t-90" style="edgeStyle=entityRelationEdgeStyle;rounded=0;orthogonalLoop=1;jettySize=auto;html=1;startArrow=none;endArrow=none;segment=10;curved=1;sourcePerimeterSpacing=0;targetPerimeterSpacing=0;entryX=0;entryY=0.25;entryDx=0;entryDy=0;fillColor=#a20025;strokeColor=#6F0000;shadow=1;strokeWidth=3;labelBackgroundColor=none;" parent="1" source="ljyijP0kOlmSLUWHq39t-87" target="ljyijP0kOlmSLUWHq39t-89" edge="1">
          <mxGeometry relative="1" as="geometry" />
        </mxCell>
        <mxCell id="ljyijP0kOlmSLUWHq39t-92" style="edgeStyle=entityRelationEdgeStyle;rounded=0;orthogonalLoop=1;jettySize=auto;html=1;startArrow=none;endArrow=none;segment=10;curved=1;sourcePerimeterSpacing=0;targetPerimeterSpacing=0;entryX=0;entryY=0.5;entryDx=0;entryDy=0;fillColor=#a20025;strokeColor=#6F0000;shadow=1;strokeWidth=3;labelBackgroundColor=none;" parent="1" source="ljyijP0kOlmSLUWHq39t-87" target="ljyijP0kOlmSLUWHq39t-91" edge="1">
          <mxGeometry relative="1" as="geometry" />
        </mxCell>
        <mxCell id="ljyijP0kOlmSLUWHq39t-96" style="edgeStyle=entityRelationEdgeStyle;rounded=0;orthogonalLoop=1;jettySize=auto;html=1;startArrow=none;endArrow=none;segment=10;curved=1;sourcePerimeterSpacing=0;targetPerimeterSpacing=0;fillColor=#a20025;strokeColor=#6F0000;shadow=1;strokeWidth=3;labelBackgroundColor=none;" parent="1" source="ljyijP0kOlmSLUWHq39t-87" target="ljyijP0kOlmSLUWHq39t-95" edge="1">
          <mxGeometry relative="1" as="geometry" />
        </mxCell>
        <mxCell id="ljyijP0kOlmSLUWHq39t-87" value="Factores a considerar" style="whiteSpace=wrap;html=1;rounded=1;arcSize=50;align=center;verticalAlign=middle;strokeWidth=3;autosize=1;spacing=4;treeFolding=1;treeMoving=1;newEdgeStyle={&quot;edgeStyle&quot;:&quot;entityRelationEdgeStyle&quot;,&quot;startArrow&quot;:&quot;none&quot;,&quot;endArrow&quot;:&quot;none&quot;,&quot;segment&quot;:10,&quot;curved&quot;:1,&quot;sourcePerimeterSpacing&quot;:0,&quot;targetPerimeterSpacing&quot;:0};fillColor=#a20025;fontColor=#ffffff;strokeColor=#6F0000;shadow=1;labelBackgroundColor=none;" parent="1" vertex="1">
          <mxGeometry x="2120" y="515" width="115" height="30" as="geometry" />
        </mxCell>
        <mxCell id="ljyijP0kOlmSLUWHq39t-89" value="&lt;div&gt;&lt;strong&gt;Naturaleza de los Datos&lt;/strong&gt;:&amp;nbsp;&lt;/div&gt;&lt;div&gt;La sensibilidad de los datos personales involucrados en el incidente.&lt;/div&gt;" style="rounded=1;whiteSpace=wrap;html=1;fillColor=#a20025;fontColor=#ffffff;strokeColor=#6F0000;shadow=1;strokeWidth=3;labelBackgroundColor=none;" parent="1" vertex="1">
          <mxGeometry x="2310" y="380" width="190" height="60" as="geometry" />
        </mxCell>
        <mxCell id="ljyijP0kOlmSLUWHq39t-91" value="&lt;div&gt;&lt;strong&gt;Alcance del Acceso No Autorizado:&lt;/strong&gt;&amp;nbsp;&lt;/div&gt;&lt;div&gt;Determinar si la violación afecta a una pequeña cantidad o a un gran volumen de datos.&lt;/div&gt;" style="rounded=1;whiteSpace=wrap;html=1;fillColor=#a20025;fontColor=#ffffff;strokeColor=#6F0000;shadow=1;strokeWidth=3;labelBackgroundColor=none;" parent="1" vertex="1">
          <mxGeometry x="2310" y="465" width="220" height="60" as="geometry" />
        </mxCell>
        <mxCell id="ljyijP0kOlmSLUWHq39t-93" value="&lt;div&gt;&lt;strong&gt;Consecuencias para los Afectados: &lt;br&gt;&lt;/strong&gt;&lt;/div&gt;&lt;div&gt;Evaluar el posible impacto negativo en los derechos y libertades de los individuos afectados.&lt;/div&gt;" style="rounded=1;whiteSpace=wrap;html=1;fillColor=#a20025;fontColor=#ffffff;strokeColor=#6F0000;shadow=1;strokeWidth=3;labelBackgroundColor=none;" parent="1" vertex="1">
          <mxGeometry x="2310" y="547.5" width="220" height="60" as="geometry" />
        </mxCell>
        <mxCell id="ljyijP0kOlmSLUWHq39t-94" style="edgeStyle=entityRelationEdgeStyle;rounded=0;orthogonalLoop=1;jettySize=auto;html=1;startArrow=none;endArrow=none;segment=10;curved=1;sourcePerimeterSpacing=0;targetPerimeterSpacing=0;entryX=-0.011;entryY=0.364;entryDx=0;entryDy=0;entryPerimeter=0;fillColor=#a20025;strokeColor=#6F0000;shadow=1;strokeWidth=3;labelBackgroundColor=none;" parent="1" source="ljyijP0kOlmSLUWHq39t-87" target="ljyijP0kOlmSLUWHq39t-93" edge="1">
          <mxGeometry relative="1" as="geometry" />
        </mxCell>
        <mxCell id="ljyijP0kOlmSLUWHq39t-95" value="&lt;div&gt;&lt;strong&gt;Circunstancias Específicas del Tratamiento:&lt;/strong&gt;&lt;/div&gt;&lt;div&gt;Considerar el propósito del tratamiento, la relación con los titulares &lt;br&gt;de los datos y cualquier medida de seguridad implementada.&lt;/div&gt;" style="rounded=1;whiteSpace=wrap;html=1;fillColor=#a20025;fontColor=#ffffff;strokeColor=#6F0000;shadow=1;strokeWidth=3;labelBackgroundColor=none;" parent="1" vertex="1">
          <mxGeometry x="2310" y="630" width="220" height="100" as="geometry" />
        </mxCell>
        <mxCell id="ljyijP0kOlmSLUWHq39t-99" style="edgeStyle=entityRelationEdgeStyle;rounded=0;orthogonalLoop=1;jettySize=auto;html=1;startArrow=none;endArrow=none;segment=10;curved=1;sourcePerimeterSpacing=0;targetPerimeterSpacing=0;entryX=0.005;entryY=0.388;entryDx=0;entryDy=0;entryPerimeter=0;fillColor=#6d8764;strokeColor=#3A5431;shadow=1;strokeWidth=3;labelBackgroundColor=none;" parent="1" source="ljyijP0kOlmSLUWHq39t-74" target="ljyijP0kOlmSLUWHq39t-16" edge="1">
          <mxGeometry relative="1" as="geometry" />
        </mxCell>
        <mxCell id="ljyijP0kOlmSLUWHq39t-102" value="4. Referencias" style="whiteSpace=wrap;strokeWidth=2;verticalAlign=top;fontSize=21;fontStyle=1" parent="1" vertex="1">
          <mxGeometry x="1300" y="2400" width="520" height="391" as="geometry" />
        </mxCell>
        <mxCell id="ljyijP0kOlmSLUWHq39t-103" value="Corrales, G. (2015). [El caso Ashley Madison: el &#39;hackeo&#39; que desnudó a 39 millones de infieles.&#39;](https://www.nacion.com/tecnologia/internet/el-caso-ashley-madison-el-hackeo-que-desnudo-a-39-millones-de-infieles/7QWUS3A4SNDQDLICN4YJANGGHU/story/)" style="whiteSpace=wrap;strokeWidth=2;fontSize=10;fillColor=#fad7ac;strokeColor=#b46504;" parent="ljyijP0kOlmSLUWHq39t-102" vertex="1">
          <mxGeometry x="8.87" y="37.78" width="506.56" height="52.22" as="geometry" />
        </mxCell>
        <mxCell id="ljyijP0kOlmSLUWHq39t-104" value="Pandasecurity. (2018). [Una red de citas y lecciones de ciberseguridad empresarial.&#39;](https://www.pandasecurity.com/es/mediacenter/aprender-de-ashley-madison/)" style="whiteSpace=wrap;strokeWidth=2;fontSize=10;fillColor=#fad7ac;strokeColor=#b46504;" parent="ljyijP0kOlmSLUWHq39t-102" vertex="1">
          <mxGeometry x="95.26" y="101" width="325.44" height="47.53" as="geometry" />
        </mxCell>
        <mxCell id="ljyijP0kOlmSLUWHq39t-105" value="Riquelme, R. (2017). [Ashley Madison propone acuerdo de 11.2 mdd por hackeo.&#39;](https://www.eleconomista.com.mx/tecnologia/Ashley-Madison-propone-acuerdo-de-11.2-mdd-por-hackeo-20170717-0088.html)" style="whiteSpace=wrap;strokeWidth=2;fillColor=#fad7ac;strokeColor=#b46504;" parent="ljyijP0kOlmSLUWHq39t-102" vertex="1">
          <mxGeometry x="56.160000000000004" y="161" width="411.97" height="52.85" as="geometry" />
        </mxCell>
        <mxCell id="ljyijP0kOlmSLUWHq39t-106" value="Titova, V. (2016). [El karma al acecho: Ashley Madison.&#39;](https://www.kaspersky.es/blog/ashley-madison-one-year-after/8805/)" style="whiteSpace=wrap;strokeWidth=2;fillColor=#fad7ac;strokeColor=#b46504;" parent="ljyijP0kOlmSLUWHq39t-102" vertex="1">
          <mxGeometry x="136.51000000000002" y="230.99999999999997" width="251.27" height="48.16" as="geometry" />
        </mxCell>
        <mxCell id="ljyijP0kOlmSLUWHq39t-107" value="welivesecurity. (2015). [Caso Ashley Madison: la cronología de los hechos.&#39;](https://www.welivesecurity.com/la-es/2015/08/31/caso-ashley-madison-cronologia/)" style="whiteSpace=wrap;strokeWidth=2;fillColor=#fad7ac;strokeColor=#b46504;" parent="ljyijP0kOlmSLUWHq39t-102" vertex="1">
          <mxGeometry x="103.58999999999999" y="291" width="317.11" height="53.48" as="geometry" />
        </mxCell>
        <mxCell id="ljyijP0kOlmSLUWHq39t-108" value="3. Evaluación de obligación de notificación y mitigación de riesgos" style="whiteSpace=wrap;strokeWidth=2;verticalAlign=top;fontSize=22;fontStyle=1" parent="1" vertex="1">
          <mxGeometry x="1190" y="2150" width="830" height="190" as="geometry" />
        </mxCell>
        <mxCell id="ljyijP0kOlmSLUWHq39t-109" value="Según el RGPD, se debió notificar a los usuarios sobre la filtración." style="whiteSpace=wrap;strokeWidth=2;fillColor=#b1ddf0;strokeColor=#10739e;" parent="ljyijP0kOlmSLUWHq39t-108" vertex="1">
          <mxGeometry x="537.9837618403249" y="43" width="277.9769959404601" height="35" as="geometry" />
        </mxCell>
        <mxCell id="ljyijP0kOlmSLUWHq39t-110" value="Falta de notificación amplificó efectos negativos." style="whiteSpace=wrap;strokeWidth=2;fillColor=#b1ddf0;strokeColor=#10739e;" parent="ljyijP0kOlmSLUWHq39t-108" vertex="1">
          <mxGeometry x="122.42219215155616" y="128" width="208.34235453315296" height="35" as="geometry" />
        </mxCell>
        <mxCell id="ljyijP0kOlmSLUWHq39t-111" value="Sensibilidad de los datos requería medidas de seguridad más fuertes." style="whiteSpace=wrap;strokeWidth=2;fillColor=#b1ddf0;strokeColor=#10739e;" parent="ljyijP0kOlmSLUWHq39t-108" vertex="1">
          <mxGeometry x="532.9296346414073" y="128" width="286.9621109607578" height="35" as="geometry" />
        </mxCell>
        <mxCell id="ljyijP0kOlmSLUWHq39t-112" value="La notificación habría mitigado algunos efectos, especialmente relacionados con tarjetas de crédito." style="whiteSpace=wrap;strokeWidth=2;fillColor=#b1ddf0;strokeColor=#10739e;" parent="ljyijP0kOlmSLUWHq39t-108" vertex="1">
          <mxGeometry x="18.531799729364007" y="43" width="416.12313937753726" height="35" as="geometry" />
        </mxCell>
        <mxCell id="ljyijP0kOlmSLUWHq39t-113" value="Efectos negativos" style="curved=1;startArrow=none;endArrow=block;exitX=1.0001796917773964;exitY=0.5;entryX=0.00032612302298648483;entryY=0.5;rounded=0;" parent="ljyijP0kOlmSLUWHq39t-108" source="ljyijP0kOlmSLUWHq39t-110" target="ljyijP0kOlmSLUWHq39t-111" edge="1">
          <mxGeometry relative="1" as="geometry">
            <Array as="points" />
          </mxGeometry>
        </mxCell>
        <mxCell id="ljyijP0kOlmSLUWHq39t-114" value="Mitigación" style="curved=1;startArrow=none;endArrow=block;exitX=1.0000899465460527;exitY=0.5;entryX=-0.0008754383433948864;entryY=0.5;rounded=0;" parent="ljyijP0kOlmSLUWHq39t-108" source="ljyijP0kOlmSLUWHq39t-112" target="ljyijP0kOlmSLUWHq39t-109" edge="1">
          <mxGeometry relative="1" as="geometry">
            <Array as="points" />
          </mxGeometry>
        </mxCell>
        <mxCell id="ljyijP0kOlmSLUWHq39t-115" value="2. Análisis RGPD respecto al caso Ashley Madison" style="whiteSpace=wrap;strokeWidth=2;verticalAlign=top;fontStyle=1;fontSize=22;" parent="1" vertex="1">
          <mxGeometry x="1119.25" y="1380" width="930" height="704" as="geometry" />
        </mxCell>
        <mxCell id="ljyijP0kOlmSLUWHq39t-116" value="Incumplimientos en varios artículos del RGPD:" style="whiteSpace=wrap;strokeWidth=2;" parent="ljyijP0kOlmSLUWHq39t-115" vertex="1">
          <mxGeometry x="17.0974930362117" y="86" width="179.26462395543177" height="35" as="geometry" />
        </mxCell>
        <mxCell id="ljyijP0kOlmSLUWHq39t-117" value="Artículo 5: Principios relativos al Tratamiento." style="whiteSpace=wrap;strokeWidth=2;fillColor=#ffe6cc;strokeColor=#d79b00;" parent="ljyijP0kOlmSLUWHq39t-115" vertex="1">
          <mxGeometry x="327.96100278551535" y="86" width="179.78272980501393" height="35" as="geometry" />
        </mxCell>
        <mxCell id="ljyijP0kOlmSLUWHq39t-118" value="1.d: Manejo incorrecto de datos de usuarios que se dieron de baja." style="whiteSpace=wrap;strokeWidth=2;fillColor=#ffe6cc;strokeColor=#d79b00;" parent="ljyijP0kOlmSLUWHq39t-115" vertex="1">
          <mxGeometry x="663.6935933147632" y="43" width="257.49860724233986" height="35" as="geometry" />
        </mxCell>
        <mxCell id="ljyijP0kOlmSLUWHq39t-119" value="1.f: Falta de medidas de protección adecuadas." style="whiteSpace=wrap;strokeWidth=2;fillColor=#ffe6cc;strokeColor=#d79b00;" parent="ljyijP0kOlmSLUWHq39t-115" vertex="1">
          <mxGeometry x="699.9610027855153" y="128" width="185.48189415041784" height="35" as="geometry" />
        </mxCell>
        <mxCell id="ljyijP0kOlmSLUWHq39t-120" value="Artículo 6: Tratamiento lícito de datos personales." style="whiteSpace=wrap;strokeWidth=2;fillColor=#f8cecc;strokeColor=#b85450;" parent="ljyijP0kOlmSLUWHq39t-115" vertex="1">
          <mxGeometry x="320.1894150417828" y="213" width="195.32590529247912" height="35" as="geometry" />
        </mxCell>
        <mxCell id="ljyijP0kOlmSLUWHq39t-121" value="1.a: Falta de consentimiento claro y específico." style="whiteSpace=wrap;strokeWidth=2;fillColor=#f8cecc;strokeColor=#b85450;" parent="ljyijP0kOlmSLUWHq39t-115" vertex="1">
          <mxGeometry x="699.4428969359333" y="213" width="186" height="35" as="geometry" />
        </mxCell>
        <mxCell id="ljyijP0kOlmSLUWHq39t-122" value="Artículo 12: Transparencia y modalidades." style="whiteSpace=wrap;strokeWidth=2;fillColor=#dae8fc;strokeColor=#6c8ebf;" parent="ljyijP0kOlmSLUWHq39t-115" vertex="1">
          <mxGeometry x="335.73259052924794" y="298" width="163.72144846796655" height="35" as="geometry" />
        </mxCell>
        <mxCell id="ljyijP0kOlmSLUWHq39t-123" value="No informó de manera transparente a los usuarios." style="whiteSpace=wrap;strokeWidth=2;fillColor=#dae8fc;strokeColor=#6c8ebf;" parent="ljyijP0kOlmSLUWHq39t-115" vertex="1">
          <mxGeometry x="694.2618384401115" y="298" width="196.36211699164346" height="35" as="geometry" />
        </mxCell>
        <mxCell id="ljyijP0kOlmSLUWHq39t-124" value="Artículo 17: Derecho a la supresión." style="whiteSpace=wrap;strokeWidth=2;fillColor=#e1d5e7;strokeColor=#9673a6;" parent="ljyijP0kOlmSLUWHq39t-115" vertex="1">
          <mxGeometry x="347.1309192200558" y="383" width="140.924791086351" height="35" as="geometry" />
        </mxCell>
        <mxCell id="ljyijP0kOlmSLUWHq39t-125" value="Incumplimiento al filtrarse datos de usuarios dados de baja." style="whiteSpace=wrap;strokeWidth=2;fillColor=#e1d5e7;strokeColor=#9673a6;" parent="ljyijP0kOlmSLUWHq39t-115" vertex="1">
          <mxGeometry x="676.6462395543175" y="383" width="231.59331476323123" height="35" as="geometry" />
        </mxCell>
        <mxCell id="ljyijP0kOlmSLUWHq39t-126" value="Artículo 32: Seguridad del Tratamiento." style="whiteSpace=wrap;strokeWidth=2;fillColor=#d5e8d4;strokeColor=#82b366;" parent="ljyijP0kOlmSLUWHq39t-115" vertex="1">
          <mxGeometry x="339.87743732590536" y="468" width="154.91364902506965" height="35" as="geometry" />
        </mxCell>
        <mxCell id="ljyijP0kOlmSLUWHq39t-127" value="Falta de evaluación adecuada de la seguridad." style="whiteSpace=wrap;strokeWidth=2;fillColor=#d5e8d4;strokeColor=#82b366;" parent="ljyijP0kOlmSLUWHq39t-115" vertex="1">
          <mxGeometry x="702.033426183844" y="468" width="180.8189415041783" height="35" as="geometry" />
        </mxCell>
        <mxCell id="ljyijP0kOlmSLUWHq39t-128" value="Artículo 33: Notificación de violación de seguridad." style="whiteSpace=wrap;strokeWidth=2;fillColor=#f5f5f5;fontColor=#333333;strokeColor=#666666;" parent="ljyijP0kOlmSLUWHq39t-115" vertex="1">
          <mxGeometry x="318.116991643454" y="553" width="198.95264623955435" height="35" as="geometry" />
        </mxCell>
        <mxCell id="ljyijP0kOlmSLUWHq39t-129" value="No se notificó a las autoridades dentro del plazo." style="whiteSpace=wrap;strokeWidth=2;fillColor=#f5f5f5;fontColor=#333333;strokeColor=#666666;" parent="ljyijP0kOlmSLUWHq39t-115" vertex="1">
          <mxGeometry x="696.8523676880222" y="553" width="191.18105849582173" height="35" as="geometry" />
        </mxCell>
        <mxCell id="ljyijP0kOlmSLUWHq39t-130" value="Artículo 34: Comunicación de violación de seguridad." style="whiteSpace=wrap;strokeWidth=2;fillColor=#b0e3e6;strokeColor=#0e8088;" parent="ljyijP0kOlmSLUWHq39t-115" vertex="1">
          <mxGeometry x="315.008356545961" y="638" width="205.68802228412255" height="35" as="geometry" />
        </mxCell>
        <mxCell id="ljyijP0kOlmSLUWHq39t-131" value="No se notificó a los afectados de manera inmediata." style="whiteSpace=wrap;strokeWidth=2;fillColor=#b0e3e6;strokeColor=#0e8088;" parent="ljyijP0kOlmSLUWHq39t-115" vertex="1">
          <mxGeometry x="691.6713091922006" y="638" width="202.06128133704738" height="35" as="geometry" />
        </mxCell>
        <mxCell id="ljyijP0kOlmSLUWHq39t-132" value="" style="curved=1;startArrow=none;endArrow=block;exitX=0.7874405259949812;exitY=-0.014285714285714285;entryX=0.00003358775701081489;entryY=0.20167343401082902;rounded=0;" parent="ljyijP0kOlmSLUWHq39t-115" source="ljyijP0kOlmSLUWHq39t-117" target="ljyijP0kOlmSLUWHq39t-118" edge="1">
          <mxGeometry relative="1" as="geometry">
            <Array as="points">
              <mxPoint x="592.1949860724234" y="44" />
            </Array>
          </mxGeometry>
        </mxCell>
        <mxCell id="ljyijP0kOlmSLUWHq39t-133" value="" style="curved=1;startArrow=none;endArrow=block;exitX=0.9979106892082809;exitY=0.7063209107460092;entryX=-0.001117216142196229;entryY=0.13641259286038201;rounded=0;" parent="ljyijP0kOlmSLUWHq39t-115" source="ljyijP0kOlmSLUWHq39t-117" target="ljyijP0kOlmSLUWHq39t-119" edge="1">
          <mxGeometry relative="1" as="geometry">
            <Array as="points">
              <mxPoint x="592.1949860724234" y="118" />
            </Array>
          </mxGeometry>
        </mxCell>
        <mxCell id="ljyijP0kOlmSLUWHq39t-134" value="" style="curved=1;startArrow=none;endArrow=block;exitX=0.9982980176687873;exitY=0.06036165306800448;entryX=0.0009285759460959262;entryY=0.13587116496022256;rounded=0;" parent="ljyijP0kOlmSLUWHq39t-115" source="ljyijP0kOlmSLUWHq39t-120" target="ljyijP0kOlmSLUWHq39t-121" edge="1">
          <mxGeometry relative="1" as="geometry">
            <Array as="points">
              <mxPoint x="592.1949860724234" y="203" />
            </Array>
          </mxGeometry>
        </mxCell>
        <mxCell id="ljyijP0kOlmSLUWHq39t-135" value="" style="curved=1;startArrow=none;endArrow=block;exitX=1.0004483476469788;exitY=0.13086402136179914;entryX=-0.0001098713333814314;entryY=0.11480711960213544;rounded=0;" parent="ljyijP0kOlmSLUWHq39t-115" source="ljyijP0kOlmSLUWHq39t-122" target="ljyijP0kOlmSLUWHq39t-123" edge="1">
          <mxGeometry relative="1" as="geometry">
            <Array as="points">
              <mxPoint x="592.1949860724234" y="288" />
            </Array>
          </mxGeometry>
        </mxCell>
        <mxCell id="ljyijP0kOlmSLUWHq39t-136" value="" style="curved=1;startArrow=none;endArrow=block;exitX=0.9995711270500632;exitY=0.18279776592431582;entryX=0.0005220758834941276;entryY=0.04633630159207282;rounded=0;" parent="ljyijP0kOlmSLUWHq39t-115" source="ljyijP0kOlmSLUWHq39t-124" target="ljyijP0kOlmSLUWHq39t-125" edge="1">
          <mxGeometry relative="1" as="geometry">
            <Array as="points">
              <mxPoint x="592.1949860724234" y="373" />
            </Array>
          </mxGeometry>
        </mxCell>
        <mxCell id="ljyijP0kOlmSLUWHq39t-137" value="" style="curved=1;startArrow=none;endArrow=block;exitX=1.0016165640840562;exitY=0.1510658614276914;entryX=0.001146201759491404;entryY=0.1461578613509232;rounded=0;" parent="ljyijP0kOlmSLUWHq39t-115" source="ljyijP0kOlmSLUWHq39t-126" target="ljyijP0kOlmSLUWHq39t-127" edge="1">
          <mxGeometry relative="1" as="geometry">
            <Array as="points">
              <mxPoint x="592.1949860724234" y="458" />
            </Array>
          </mxGeometry>
        </mxCell>
        <mxCell id="ljyijP0kOlmSLUWHq39t-138" value="" style="curved=1;startArrow=none;endArrow=block;exitX=0.9992187817891439;exitY=0.052564802039881085;entryX=0.0003388360909976287;entryY=0.12529685532782814;rounded=0;" parent="ljyijP0kOlmSLUWHq39t-115" source="ljyijP0kOlmSLUWHq39t-128" target="ljyijP0kOlmSLUWHq39t-129" edge="1">
          <mxGeometry relative="1" as="geometry">
            <Array as="points">
              <mxPoint x="592.1949860724234" y="543" />
            </Array>
          </mxGeometry>
        </mxCell>
        <mxCell id="ljyijP0kOlmSLUWHq39t-139" value="" style="curved=1;startArrow=none;endArrow=block;exitX=0.9983627742123544;exitY=0.03704881963438181;entryX=-0.0007477980393629808;entryY=0.10414820508358388;rounded=0;" parent="ljyijP0kOlmSLUWHq39t-115" source="ljyijP0kOlmSLUWHq39t-130" target="ljyijP0kOlmSLUWHq39t-131" edge="1">
          <mxGeometry relative="1" as="geometry">
            <Array as="points">
              <mxPoint x="592.1949860724234" y="628" />
            </Array>
          </mxGeometry>
        </mxCell>
        <mxCell id="ljyijP0kOlmSLUWHq39t-140" value="Principios al Tratamiento" style="curved=1;startArrow=none;endArrow=block;exitX=0.9995664916286578;exitY=0.4857142857142857;entryX=-0.001176685696032961;entryY=0.4857142857142857;rounded=0;" parent="ljyijP0kOlmSLUWHq39t-115" source="ljyijP0kOlmSLUWHq39t-116" target="ljyijP0kOlmSLUWHq39t-117" edge="1">
          <mxGeometry relative="1" as="geometry">
            <Array as="points" />
          </mxGeometry>
        </mxCell>
        <mxCell id="ljyijP0kOlmSLUWHq39t-141" value="Manejo incorrecto de datos" style="curved=1;startArrow=none;endArrow=block;exitX=0.9979106892082809;exitY=0.2651076606825622;entryX=0.004850367686855973;entryY=1;rounded=0;" parent="ljyijP0kOlmSLUWHq39t-115" source="ljyijP0kOlmSLUWHq39t-117" target="ljyijP0kOlmSLUWHq39t-118" edge="1">
          <mxGeometry relative="1" as="geometry">
            <Array as="points">
              <mxPoint x="592.1949860724234" y="88" />
            </Array>
          </mxGeometry>
        </mxCell>
        <mxCell id="ljyijP0kOlmSLUWHq39t-142" value="Falta de medidas de protección" style="curved=1;startArrow=none;endArrow=block;exitX=0.740982281028022;exitY=0.9857142857142858;entryX=-0.001117216142196229;entryY=0.863587407139618;rounded=0;" parent="ljyijP0kOlmSLUWHq39t-115" source="ljyijP0kOlmSLUWHq39t-117" target="ljyijP0kOlmSLUWHq39t-119" edge="1">
          <mxGeometry relative="1" as="geometry">
            <Array as="points">
              <mxPoint x="592.1949860724234" y="173" />
            </Array>
          </mxGeometry>
        </mxCell>
        <mxCell id="ljyijP0kOlmSLUWHq39t-143" value="Tratamiento lícito" style="curved=1;startArrow=none;endArrow=block;exitX=0.9982980176687873;exitY=0.9396383469319955;entryX=0.0009285759460959262;entryY=0.8641288350397774;rounded=0;" parent="ljyijP0kOlmSLUWHq39t-115" source="ljyijP0kOlmSLUWHq39t-120" target="ljyijP0kOlmSLUWHq39t-121" edge="1">
          <mxGeometry relative="1" as="geometry">
            <Array as="points">
              <mxPoint x="592.1949860724234" y="258" />
            </Array>
          </mxGeometry>
        </mxCell>
        <mxCell id="ljyijP0kOlmSLUWHq39t-144" value="Transparencia" style="curved=1;startArrow=none;endArrow=block;exitX=1.0004483476469788;exitY=0.8691359786382009;entryX=-0.0001098713333814314;entryY=0.8851928803978646;rounded=0;" parent="ljyijP0kOlmSLUWHq39t-115" source="ljyijP0kOlmSLUWHq39t-122" target="ljyijP0kOlmSLUWHq39t-123" edge="1">
          <mxGeometry relative="1" as="geometry">
            <Array as="points">
              <mxPoint x="592.1949860724234" y="343" />
            </Array>
          </mxGeometry>
        </mxCell>
        <mxCell id="ljyijP0kOlmSLUWHq39t-145" value="Derecho a la supresión" style="curved=1;startArrow=none;endArrow=block;exitX=0.9995711270500632;exitY=0.8172022340756842;entryX=0.0005220758834941276;entryY=0.9536636984079272;rounded=0;" parent="ljyijP0kOlmSLUWHq39t-115" source="ljyijP0kOlmSLUWHq39t-124" target="ljyijP0kOlmSLUWHq39t-125" edge="1">
          <mxGeometry relative="1" as="geometry">
            <Array as="points">
              <mxPoint x="592.1949860724234" y="428" />
            </Array>
          </mxGeometry>
        </mxCell>
        <mxCell id="ljyijP0kOlmSLUWHq39t-146" value="Seguridad del Tratamiento" style="curved=1;startArrow=none;endArrow=block;exitX=1.0016165640840562;exitY=0.8489341385723086;entryX=0.001146201759491404;entryY=0.8538421386490768;rounded=0;" parent="ljyijP0kOlmSLUWHq39t-115" source="ljyijP0kOlmSLUWHq39t-126" target="ljyijP0kOlmSLUWHq39t-127" edge="1">
          <mxGeometry relative="1" as="geometry">
            <Array as="points">
              <mxPoint x="592.1949860724234" y="513" />
            </Array>
          </mxGeometry>
        </mxCell>
        <mxCell id="ljyijP0kOlmSLUWHq39t-147" value="Notificación de violación" style="curved=1;startArrow=none;endArrow=block;exitX=0.9992187817891439;exitY=0.9474351979601189;entryX=0.0003388360909976287;entryY=0.8747031446721719;rounded=0;" parent="ljyijP0kOlmSLUWHq39t-115" source="ljyijP0kOlmSLUWHq39t-128" target="ljyijP0kOlmSLUWHq39t-129" edge="1">
          <mxGeometry relative="1" as="geometry">
            <Array as="points">
              <mxPoint x="592.1949860724234" y="598" />
            </Array>
          </mxGeometry>
        </mxCell>
        <mxCell id="ljyijP0kOlmSLUWHq39t-148" value="Comunicación de violación" style="curved=1;startArrow=none;endArrow=block;exitX=0.9983627742123544;exitY=0.7525188256539748;entryX=-0.0007477980393629808;entryY=0.7159191608634988;rounded=0;" parent="ljyijP0kOlmSLUWHq39t-115" source="ljyijP0kOlmSLUWHq39t-130" target="ljyijP0kOlmSLUWHq39t-131" edge="1">
          <mxGeometry relative="1" as="geometry">
            <Array as="points">
              <mxPoint x="592.1949860724234" y="671" />
            </Array>
          </mxGeometry>
        </mxCell>
        <mxCell id="ljyijP0kOlmSLUWHq39t-162" style="edgeStyle=orthogonalEdgeStyle;rounded=0;orthogonalLoop=1;jettySize=auto;html=1;" parent="1" source="ljyijP0kOlmSLUWHq39t-149" edge="1">
          <mxGeometry relative="1" as="geometry">
            <mxPoint x="2100" y="1215" as="targetPoint" />
          </mxGeometry>
        </mxCell>
        <mxCell id="ljyijP0kOlmSLUWHq39t-149" value="1. Caso Ashley Madison" style="whiteSpace=wrap;strokeWidth=2;verticalAlign=top;fontStyle=1;fontSize=24;" parent="1" vertex="1">
          <mxGeometry x="860" y="1110" width="1510" height="230" as="geometry" />
        </mxCell>
        <mxCell id="ljyijP0kOlmSLUWHq39t-150" value="Filtración de información del portal de citas en línea." style="whiteSpace=wrap;strokeWidth=2;fillColor=#f8cecc;strokeColor=#b85450;" parent="ljyijP0kOlmSLUWHq39t-149" vertex="1">
          <mxGeometry x="851.9084444444443" y="52.05263157894737" width="213.51399999999998" height="56.89473684210526" as="geometry" />
        </mxCell>
        <mxCell id="ljyijP0kOlmSLUWHq39t-151" value="Hackers conocidos como &#39;The Impact Team&#39;." style="whiteSpace=wrap;strokeWidth=2;fillColor=#f8cecc;strokeColor=#b85450;" parent="ljyijP0kOlmSLUWHq39t-149" vertex="1">
          <mxGeometry x="1282.1074444444441" y="52.05263157894737" width="175.17677777777774" height="56.89473684210526" as="geometry" />
        </mxCell>
        <mxCell id="ljyijP0kOlmSLUWHq39t-152" value="Amenazas de divulgación si no se cerraba el portal." style="whiteSpace=wrap;strokeWidth=2;fillColor=#e3c800;fontColor=#000000;strokeColor=#B09500;" parent="ljyijP0kOlmSLUWHq39t-149" vertex="1">
          <mxGeometry x="17.570521861777145" y="154.94736842105263" width="204.45698166431586" height="42.368421052631575" as="geometry" />
        </mxCell>
        <mxCell id="ljyijP0kOlmSLUWHq39t-153" value="Pago para eliminar información, pero usuarios afectados." style="whiteSpace=wrap;strokeWidth=2;fillColor=#e3c800;fontColor=#000000;strokeColor=#B09500;" parent="ljyijP0kOlmSLUWHq39t-149" vertex="1">
          <mxGeometry x="320" y="154.95" width="170" height="55.05" as="geometry" />
        </mxCell>
        <mxCell id="ljyijP0kOlmSLUWHq39t-154" value="Avid Life Media enfrentó multas millonarias." style="whiteSpace=wrap;strokeWidth=2;fillColor=#e3c800;fontColor=#000000;strokeColor=#B09500;" parent="ljyijP0kOlmSLUWHq39t-149" vertex="1">
          <mxGeometry x="606.45" y="154.95" width="177.3" height="55.05" as="geometry" />
        </mxCell>
        <mxCell id="ljyijP0kOlmSLUWHq39t-155" value="La empresa conocía vulnerabilidades de seguridad desde 2012." style="whiteSpace=wrap;strokeWidth=2;fillColor=#e3c800;fontColor=#000000;strokeColor=#B09500;" parent="ljyijP0kOlmSLUWHq39t-149" vertex="1">
          <mxGeometry x="870" y="154.95" width="212.45" height="42.37" as="geometry" />
        </mxCell>
        <mxCell id="ljyijP0kOlmSLUWHq39t-156" value="No informó sobre la violación antes de su lanzamiento en la bolsa." style="whiteSpace=wrap;strokeWidth=2;fillColor=#e3c800;fontColor=#000000;strokeColor=#B09500;" parent="ljyijP0kOlmSLUWHq39t-149" vertex="1">
          <mxGeometry x="1280" y="154.95" width="180" height="55.05" as="geometry" />
        </mxCell>
        <mxCell id="ljyijP0kOlmSLUWHq39t-157" value="Involucrados" style="curved=1;startArrow=none;endArrow=block;exitX=0.9996883268665494;exitY=0.5;entryX=0.0010891830305198044;entryY=0.5;rounded=0;" parent="ljyijP0kOlmSLUWHq39t-149" source="ljyijP0kOlmSLUWHq39t-150" target="ljyijP0kOlmSLUWHq39t-151" edge="1">
          <mxGeometry relative="1" as="geometry">
            <Array as="points" />
          </mxGeometry>
        </mxCell>
        <mxCell id="ljyijP0kOlmSLUWHq39t-158" value="Afectaciones" style="curved=1;startArrow=none;endArrow=block;exitX=1.0005642573038738;exitY=0.5;entryX=1.7909376833920188e-8;entryY=0.5;rounded=0;" parent="ljyijP0kOlmSLUWHq39t-149" source="ljyijP0kOlmSLUWHq39t-152" target="ljyijP0kOlmSLUWHq39t-153" edge="1">
          <mxGeometry relative="1" as="geometry">
            <Array as="points" />
          </mxGeometry>
        </mxCell>
        <mxCell id="ljyijP0kOlmSLUWHq39t-159" value="Consecuencias" style="curved=1;startArrow=none;endArrow=block;exitX=0.999882675672361;exitY=0.5;entryX=-0.0012511977920303115;entryY=0.5;rounded=0;" parent="ljyijP0kOlmSLUWHq39t-149" source="ljyijP0kOlmSLUWHq39t-153" target="ljyijP0kOlmSLUWHq39t-154" edge="1">
          <mxGeometry relative="1" as="geometry">
            <Array as="points" />
          </mxGeometry>
        </mxCell>
        <mxCell id="ljyijP0kOlmSLUWHq39t-160" value="Multas" style="curved=1;startArrow=none;endArrow=block;exitX=0.9982483322555954;exitY=0.5;entryX=0.0010014890089567127;entryY=0.5;rounded=0;fontSize=10;" parent="ljyijP0kOlmSLUWHq39t-149" source="ljyijP0kOlmSLUWHq39t-154" target="ljyijP0kOlmSLUWHq39t-155" edge="1">
          <mxGeometry relative="1" as="geometry">
            <Array as="points" />
          </mxGeometry>
        </mxCell>
        <mxCell id="ljyijP0kOlmSLUWHq39t-161" value="Conocimiento de vulnerabilidades" style="curved=1;startArrow=none;endArrow=block;exitX=1.0013948776179629;exitY=0.5;entryX=-0.0004403571772381542;entryY=0.5;rounded=0;fontSize=10;" parent="ljyijP0kOlmSLUWHq39t-149" source="ljyijP0kOlmSLUWHq39t-155" target="ljyijP0kOlmSLUWHq39t-156" edge="1">
          <mxGeometry relative="1" as="geometry">
            <Array as="points" />
          </mxGeometry>
        </mxCell>
        <mxCell id="ljyijP0kOlmSLUWHq39t-163" value="Conceptos y Pasos para realizar actividad Privacidad y Seguridad de Datos" style="rounded=1;whiteSpace=wrap;html=1;fontStyle=1;fontSize=23;" parent="1" vertex="1">
          <mxGeometry x="990" y="35" width="840" height="60" as="geometry" />
        </mxCell>
        <mxCell id="ljyijP0kOlmSLUWHq39t-164" value="Actividad a Realizar" style="rounded=1;whiteSpace=wrap;html=1;fontStyle=1;fontSize=23;" parent="1" vertex="1">
          <mxGeometry x="180" y="125" width="510" height="60" as="geometry" />
        </mxCell>
      </root>
    </mxGraphModel>
  </diagram>
</mxfile>
